<svg width="20" height="20" viewBox="0 0 20 20" fill="none" xmlns="http://www.w3.org/2000/svg">
<path d="M12.095 13.412C11.645 13.862 10.685 14.02 10 14.02C9.315 14.02 8.36004 13.86 7.91004 13.412C7.88524 13.3868 7.85562 13.3668 7.823 13.3531C7.79038 13.3394 7.75534 13.3324 7.71997 13.3324C7.68461 13.3324 7.64957 13.3394 7.61695 13.3531C7.58433 13.3668 7.55484 13.3868 7.53003 13.412C7.504 13.4365 7.4833 13.4661 7.46912 13.499C7.45495 13.5318 7.44751 13.5672 7.44751 13.603C7.44751 13.6388 7.45495 13.6742 7.46912 13.707C7.4833 13.7399 7.504 13.7695 7.53003 13.794C8.24003 14.504 9.6 14.56 10 14.56C10.4 14.56 11.765 14.504 12.475 13.794C12.5254 13.7432 12.5537 13.6746 12.5537 13.603C12.5537 13.5314 12.5254 13.4628 12.475 13.412C12.4502 13.3868 12.4207 13.3668 12.3881 13.3531C12.3554 13.3394 12.3204 13.3324 12.285 13.3324C12.2497 13.3324 12.2146 13.3394 12.182 13.3531C12.1494 13.3668 12.1198 13.3868 12.095 13.412ZM8.75 11.042C8.7501 10.8357 8.68895 10.634 8.57434 10.4624C8.45974 10.2909 8.29683 10.1572 8.1062 10.0783C7.91558 9.99936 7.70587 9.97879 7.50354 10.0192C7.30122 10.0595 7.11536 10.159 6.96961 10.3051C6.82386 10.4511 6.7248 10.6371 6.68482 10.8395C6.64484 11.0419 6.66573 11.2516 6.745 11.4421C6.82427 11.6325 6.95835 11.7952 7.13013 11.9095C7.30191 12.0238 7.50365 12.0845 7.70997 12.084C7.98573 12.0827 8.24977 11.9724 8.44458 11.7772C8.63939 11.582 8.74922 11.3178 8.75 11.042ZM10 0C8.02219 0 6.08883 0.586491 4.44434 1.6853C2.79985 2.78412 1.51811 4.34591 0.761235 6.17317C0.00435829 8.00043 -0.193709 10.0111 0.192143 11.9509C0.577995 13.8907 1.53043 15.6725 2.92896 17.0711C4.32748 18.4696 6.10927 19.422 8.04908 19.8079C9.98889 20.1937 11.9995 19.9957 13.8268 19.2388C15.654 18.4819 17.2159 17.2002 18.3147 15.5557C19.4135 13.9112 20 11.9778 20 10C20 7.34784 18.9464 4.8043 17.071 2.92893C15.1957 1.05357 12.6522 0 10 0ZM15.8001 11.334C15.8243 11.4787 15.8359 11.6253 15.835 11.772C15.835 14.016 13.225 15.834 10 15.834C6.775 15.834 4.17005 14.016 4.17005 11.772C4.16988 11.6242 4.17982 11.4765 4.19996 11.33C3.89541 11.1932 3.64705 10.956 3.49634 10.6581C3.34564 10.3602 3.30183 10.0196 3.37207 9.69325C3.44231 9.36686 3.62242 9.07447 3.88233 8.86493C4.14224 8.65539 4.4662 8.5414 4.80005 8.542C5.17517 8.54117 5.53578 8.68685 5.80506 8.948C6.97719 8.15278 8.35864 7.72268 9.77503 7.712C9.77503 7.692 10.505 4.224 10.505 4.224C10.5196 4.15739 10.5589 4.09878 10.615 4.06C10.6728 4.02297 10.7429 4.01004 10.8101 4.024L13.235 4.54C13.3467 4.31184 13.5377 4.13225 13.7723 4.03492C14.007 3.93758 14.2691 3.92917 14.5095 4.01128C14.7499 4.09339 14.9521 4.26036 15.0781 4.4809C15.2042 4.70143 15.2456 4.96039 15.1943 5.2092C15.1431 5.45801 15.0029 5.67958 14.7999 5.83238C14.597 5.98518 14.3453 6.05871 14.092 6.03918C13.8388 6.01965 13.6013 5.9084 13.4242 5.72629C13.2471 5.54418 13.1425 5.30372 13.13 5.05L10.96 4.588L10.295 7.714C11.6881 7.73677 13.0438 8.16716 14.195 8.952C14.3482 8.80445 14.532 8.69224 14.7333 8.62324C14.9345 8.55424 15.1484 8.53012 15.36 8.55259C15.5716 8.57505 15.7757 8.64354 15.958 8.75326C16.1403 8.86298 16.2964 9.01127 16.4153 9.18772C16.5342 9.36417 16.613 9.56449 16.6462 9.77464C16.6795 9.9848 16.6663 10.1997 16.6077 10.4042C16.549 10.6087 16.4464 10.7979 16.3069 10.9586C16.1674 11.1192 15.9944 11.2473 15.8001 11.334ZM12.29 10C12.0841 10.0006 11.8829 10.0622 11.7119 10.1771C11.541 10.2919 11.4079 10.4549 11.3295 10.6453C11.2511 10.8358 11.2308 11.0452 11.2714 11.2471C11.3119 11.449 11.4114 11.6344 11.5573 11.7799C11.7031 11.9253 11.8888 12.0242 12.0908 12.0642C12.2929 12.1042 12.5023 12.0833 12.6925 12.0044C12.8827 11.9254 13.0452 11.7919 13.1595 11.6206C13.2739 11.4493 13.335 11.248 13.335 11.042C13.3342 10.7654 13.2237 10.5003 13.0278 10.305C12.8319 10.1097 12.5667 10 12.29 10Z" fill="black"/>
</svg>
