<svg width="21" height="21" viewBox="0 0 21 21" fill="none" xmlns="http://www.w3.org/2000/svg">
<path d="M10.0033 0C7.4768 0.0261267 5.05173 0.997544 3.20585 2.72285C1.35997 4.44815 0.227105 6.80221 0.0306232 9.32121C-0.165858 11.8402 0.588304 14.3414 2.14434 16.3321C3.70037 18.3227 5.94542 19.6584 8.43733 20.076V13.0188H5.8978V10.0992H8.43733V7.87381C8.43733 5.34122 9.933 3.94393 12.2166 3.94393C12.9666 3.95443 13.7148 4.02036 14.4551 4.14118V6.62508H13.1955H13.1352C12.946 6.60529 12.7547 6.62393 12.5729 6.6799C12.391 6.73587 12.2224 6.82801 12.0771 6.95078C11.9318 7.07355 11.8128 7.22442 11.7272 7.39434C11.6417 7.56425 11.5913 7.7497 11.5792 7.93956C11.5751 7.95113 11.5734 7.96343 11.5742 7.97569C11.575 7.98615 11.5733 7.99666 11.5692 8.00631V8.07256C11.5673 8.07445 11.5659 8.07674 11.565 8.07926C11.5641 8.08178 11.564 8.08447 11.5643 8.08711V10.0947H14.3347L13.893 13.0148H11.5643V20.076C14.0558 19.6586 16.3007 18.3233 17.8568 16.3331C19.4129 14.343 20.1673 11.8423 19.9715 9.32366C19.7756 6.805 18.6437 4.45097 16.7987 2.72527C14.9537 0.999564 12.5294 0.0273027 10.0033 0Z" fill="black"/>
</svg>
