<svg width="21" height="21" viewBox="0 0 21 21" fill="none" xmlns="http://www.w3.org/2000/svg">
<path d="M9.98975 0C7.44615 0.00317161 4.99896 0.973257 3.144 2.71366C1.28903 4.45407 0.165096 6.83461 0 9.37284C0 9.37535 0.0050249 9.37786 0.0050249 9.38037L5.38645 11.6012C5.87178 11.2797 6.44634 11.1198 7.028 11.1444L9.4777 7.57518C9.47344 7.55881 9.47187 7.54187 9.4728 7.52498C9.47597 6.77308 9.70183 6.03898 10.1219 5.41534C10.5419 4.7917 11.1372 4.30649 11.8328 4.02094C12.5284 3.7354 13.2929 3.66234 14.03 3.81097C14.7671 3.9596 15.4436 4.32327 15.9742 4.85606C16.5047 5.38886 16.8656 6.0669 17.0111 6.80458C17.1567 7.54227 17.0803 8.30654 16.7919 9.0009C16.5034 9.69527 16.0157 10.2886 15.3903 10.706C14.7649 11.1234 14.0298 11.3462 13.2779 11.3462C13.2478 11.3462 13.2227 11.3462 13.1926 11.3462L9.68862 13.8562C9.69655 14.2494 9.62309 14.6399 9.4728 15.0033C9.24727 15.5491 8.85335 16.0086 8.34845 16.3149C7.84354 16.6212 7.25396 16.7583 6.66572 16.7062C6.07747 16.6541 5.5213 16.4155 5.07809 16.0252C4.63489 15.6349 4.32789 15.1133 4.2018 14.5364L0.411674 12.9682C0.957543 14.7399 1.98437 16.3255 3.37784 17.5484C4.7713 18.7713 6.47666 19.5835 8.30432 19.8947C10.132 20.2059 12.0102 20.0038 13.7299 19.311C15.4495 18.6182 16.9432 17.4618 18.0447 15.9705C19.1461 14.4792 19.8121 12.7115 19.9686 10.8641C20.1251 9.01677 19.7659 7.16223 18.931 5.50689C18.0961 3.85155 16.8184 2.46034 15.2398 1.4881C13.6612 0.515855 11.8437 0.000710861 9.98975 0ZM6.21973 15.3768L4.98483 14.8622C5.16118 15.2366 5.44279 15.5515 5.79518 15.7685C6.14758 15.9855 6.5556 16.0951 6.96929 16.0841C7.38299 16.073 7.78449 15.9417 8.12478 15.7061C8.46506 15.4706 8.7293 15.1411 8.88538 14.7578C8.99429 14.4972 9.05083 14.2177 9.05169 13.9353C9.05255 13.6528 8.99772 13.373 8.8904 13.1117C8.68099 12.5946 8.2772 12.1802 7.76568 11.9575C7.25416 11.7348 6.67573 11.7215 6.15452 11.9205L7.43465 12.4521C7.81836 12.616 8.12184 12.9246 8.2792 13.311C8.43656 13.6975 8.43511 14.1304 8.27503 14.5157C8.11496 14.901 7.8092 15.2075 7.42435 15.3687C7.03951 15.5298 6.60658 15.533 6.21973 15.3768ZM15.813 7.52598C15.8109 7.02504 15.6604 6.53595 15.3806 6.12044C15.1008 5.70494 14.7042 5.38165 14.2408 5.19139C13.7774 5.00113 13.2679 4.95242 12.7769 5.05143C12.2858 5.15043 11.8351 5.39271 11.4817 5.74766C11.1282 6.10262 10.8878 6.55435 10.7908 7.04582C10.6938 7.53729 10.7446 8.04647 10.9368 8.50909C11.1289 8.9717 11.4539 9.36701 11.8705 9.64511C12.2872 9.9232 12.7769 10.0716 13.2779 10.0716C13.9514 10.0691 14.5964 9.79969 15.0716 9.32242C15.5468 8.84516 15.8134 8.19948 15.813 7.52598ZM11.3803 7.52197C11.3821 7.14606 11.4952 6.77911 11.7053 6.46742C11.9155 6.15574 12.2132 5.91329 12.561 5.77067C12.9088 5.62805 13.2912 5.59166 13.6596 5.66609C14.0281 5.74052 14.3662 5.92243 14.6314 6.18887C14.8966 6.4553 15.0769 6.79432 15.1496 7.16314C15.2223 7.53196 15.184 7.91404 15.0398 8.26116C14.8955 8.60829 14.6517 8.9049 14.339 9.11356C14.0263 9.32222 13.6588 9.43358 13.2829 9.43358C12.7771 9.43225 12.2925 9.23007 11.9357 8.87149C11.5789 8.51291 11.3791 8.02781 11.3803 7.52197Z" fill="black"/>
</svg>
