<svg width="21" height="21" viewBox="0 0 21 21" fill="none" xmlns="http://www.w3.org/2000/svg">
<path d="M10.0802 8.03561e-05C8.09282 -0.00786937 6.14779 0.574203 4.49145 1.67257C2.8351 2.77093 1.5419 4.33617 0.775837 6.17003C0.00977165 8.00389 -0.194802 10.0238 0.188046 11.9741C0.570895 13.9243 1.52399 15.717 2.9265 17.1251C4.329 18.5333 6.11782 19.4935 8.06648 19.8841C10.0151 20.2748 12.0359 20.0783 13.8728 19.3196C15.7097 18.5609 17.2802 17.2741 18.3852 15.6222C19.4902 13.9702 20.08 12.0275 20.08 10.0401C20.0851 7.38271 19.0345 4.83214 17.1592 2.94933C15.2839 1.06652 12.7376 0.00566664 10.0802 8.03561e-05ZM15.1053 8.1375C15.1103 8.2379 15.1103 8.34332 15.1103 8.44874C15.1183 9.35332 14.9465 10.2505 14.6047 11.0881C14.263 11.9257 13.7582 12.687 13.1197 13.3278C12.4812 13.9686 11.7217 14.4762 10.8853 14.821C10.049 15.1657 9.15247 15.3409 8.24787 15.3362C6.93928 15.338 5.65871 14.9576 4.56327 14.2418C4.75472 14.2662 4.94752 14.278 5.14052 14.277C6.22716 14.2778 7.28258 13.9137 8.13744 13.2428C7.63297 13.2338 7.14406 13.0666 6.73966 12.7649C6.33527 12.4632 6.0358 12.0421 5.88347 11.5611C6.03387 11.5913 6.18697 11.6064 6.34036 11.6063C6.55573 11.6065 6.77016 11.5777 6.97791 11.521C6.43039 11.4099 5.93815 11.1127 5.58491 10.6798C5.23168 10.247 5.03919 9.7052 5.04014 9.14652V9.1164C5.37344 9.30368 5.74727 9.40706 6.12944 9.4176C5.61832 9.07503 5.25662 8.55087 5.11772 7.95145C4.97882 7.35202 5.07311 6.72221 5.38147 6.18974C5.98497 6.93765 6.73966 7.54965 7.5961 7.98566C8.45254 8.42167 9.3915 8.67185 10.3513 8.71982C10.3065 8.53922 10.2845 8.3537 10.286 8.16762C10.2834 7.6828 10.4271 7.20847 10.6983 6.80661C10.9695 6.40475 11.3556 6.09405 11.8062 5.91511C12.2568 5.73618 12.751 5.69733 13.224 5.80364C13.697 5.90995 14.127 6.15649 14.4577 6.51102C14.9973 6.40228 15.5149 6.20374 15.9888 5.92368C15.8091 6.48517 15.4306 6.96177 14.9245 7.26402C15.4027 7.20651 15.8697 7.07792 16.31 6.8825C15.9872 7.36996 15.5791 7.79511 15.1053 8.1375Z" fill="black"/>
</svg>
