<svg width="21" height="21" viewBox="0 0 21 21" fill="none" xmlns="http://www.w3.org/2000/svg">
<path d="M10.0802 8.03561e-05C8.09283 -0.00786937 6.14767 0.574203 4.49132 1.67257C2.83498 2.77093 1.5419 4.33617 0.775837 6.17003C0.00977165 8.00389 -0.194802 10.0238 0.188046 11.9741C0.570895 13.9243 1.52399 15.717 2.9265 17.1251C4.329 18.5332 6.11782 19.4935 8.06648 19.8841C10.0151 20.2748 12.0359 20.0783 13.8728 19.3196C15.7097 18.5609 17.2802 17.2741 18.3852 15.6222C19.4902 13.9702 20.08 12.0275 20.08 10.0401C20.0848 7.38279 19.0341 4.83238 17.1589 2.94963C15.2836 1.06688 12.7375 0.00593261 10.0802 8.03561e-05ZM16.5912 6.72688C16.5208 6.43967 16.3762 6.176 16.1718 5.96233C15.9674 5.74866 15.7103 5.59251 15.4265 5.50953C14.3974 5.22188 10.2659 5.22188 10.2659 5.22188C10.2659 5.22188 6.13947 5.22188 5.11037 5.50953C4.82552 5.59156 4.5674 5.74732 4.36202 5.96107C4.15665 6.17482 4.01138 6.43899 3.94079 6.72688C3.57289 8.92036 3.57289 11.1598 3.94079 13.3533C4.01138 13.6412 4.15665 13.9053 4.36202 14.1191C4.5674 14.3328 4.82552 14.4886 5.11037 14.5706C6.13947 14.8583 10.2659 14.8583 10.2659 14.8583C10.2659 14.8583 14.3974 14.8583 15.4265 14.5706C15.7103 14.4876 15.9672 14.3314 16.1716 14.1178C16.3761 13.9041 16.5208 13.6405 16.5912 13.3533C16.9591 11.1598 16.9591 8.92036 16.5912 6.72688ZM8.94571 12.1063V7.97485L12.3743 10.0401L8.94571 12.1063Z" fill="black"/>
</svg>
